<svg version="1.1" viewBox="0.0 0.0 32.0 32.0" fill="none" stroke="none" stroke-linecap="square" stroke-miterlimit="10" xmlns:xlink="http://www.w3.org/1999/xlink" xmlns="http://www.w3.org/2000/svg"><clipPath id="p.0"><path d="m0 0l32.0 0l0 32.0l-32.0 0l0 -32.0z" clip-rule="nonzero"/></clipPath><g clip-path="url(#p.0)"><path fill="#000000" fill-opacity="0.0" d="m0 0l32.0 0l0 32.0l-32.0 0z" fill-rule="evenodd"/><path fill="#000000" d="m16.014263 0l-1.6985922 2.9289289l-2.5997715 -2.5649977l-0.90118027 3.3449292l-2.9982934 -1.7157022l-0.034773827 3.2755651l-3.154316 -0.83200073l0.88406944 3.310339l-3.4663622 0.01729536l1.7850661 3.1544995l-3.240975 0.86640644l2.3743844 2.4437494l-2.9635189 1.6812954l2.9289289 1.715703l-2.5649977 2.5477028l3.3795192 0.93595314l-1.7329972 2.9464092l3.3101554 0.051883698l-0.84911156 3.1197262l3.3449287 -0.8665905l-0.017294884 3.448883l3.1889062 -1.8023605l0.8665905 3.310339l2.4437485 -2.4612274l1.733181 2.9637032l1.6984081 -2.9289284l2.5997715 2.5997715l0.90118027 -3.3797035l2.998293 1.6984062l0 -3.2755642l3.2063847 0.8665905l-0.88388634 -3.3449287l3.5009537 0.01729393l-1.8717251 -3.1716099l3.29286 -0.9013653l-2.35709 -2.3916798l2.8943367 -1.6811123l-2.9116325 -1.7158861l2.5477028 -2.5649977l-3.3795185 -0.90118027l1.7504749 -3.0157719l-3.310339 0l0.88388634 -3.154316l-3.3624077 0.90118074l-0.034589767 -3.4488833l-3.154316 1.7850661l-0.8665905 -3.2755651l-2.4610443 2.3916795z" fill-rule="evenodd"/><path fill="#000000" fill-opacity="0.0" d="m0 0l32.0 0l0 32.0l-32.0 0z" fill-rule="evenodd"/><path fill="#ffffff" d="m12.331017 16.89625q0 0.03125 -0.046875 0.453125l-4.328125 0q0.109375 0.53125 0.546875 0.84375q0.4375 0.296875 1.09375 0.296875q0.453125 0 0.796875 -0.125q0.34375 -0.140625 0.640625 -0.421875l0.890625 0.953125q-0.8125 0.921875 -2.375 0.921875q-0.96875 0 -1.71875 -0.375q-0.734375 -0.375 -1.140625 -1.046875q-0.40625 -0.671875 -0.40625 -1.515625q0 -0.84375 0.390625 -1.515625q0.40625 -0.6875 1.09375 -1.0625q0.703125 -0.375 1.578125 -0.375q0.828125 0 1.515625 0.359375q0.6875 0.359375 1.078125 1.046875q0.390625 0.671875 0.390625 1.5625zm-2.984375 -1.71875q-0.5625 0 -0.953125 0.328125q-0.375 0.3125 -0.453125 0.859375l2.8125 0q-0.078125 -0.53125 -0.46875 -0.859375q-0.375 -0.328125 -0.9375 -0.328125zm4.083542 -3.34375l1.65625 0l0 7.90625l-1.65625 0l0 -7.90625zm3.2075653 2.171875l1.65625 0l0 5.734375l-1.65625 0l0 -5.734375zm0.828125 -0.796875q-0.453125 0 -0.75 -0.265625q-0.28125 -0.265625 -0.28125 -0.65625q0 -0.40625 0.28125 -0.671875q0.296875 -0.265625 0.75 -0.265625q0.46875 0 0.75 0.265625q0.296875 0.25 0.296875 0.640625q0 0.40625 -0.296875 0.6875q-0.28125 0.265625 -0.75 0.265625zm5.1138153 6.609375q-0.90625 0 -1.625 -0.375q-0.71875 -0.375 -1.125 -1.046875q-0.40625 -0.671875 -0.40625 -1.515625q0 -0.859375 0.40625 -1.53125q0.40625 -0.671875 1.125 -1.046875q0.71875 -0.375 1.625 -0.375q0.90625 0 1.609375 0.375q0.71875 0.375 1.125 1.046875q0.40625 0.671875 0.40625 1.53125q0 0.84375 -0.40625 1.515625q-0.40625 0.671875 -1.125 1.046875q-0.703125 0.375 -1.609375 0.375zm0 -1.359375q0.640625 0 1.046875 -0.421875q0.40625 -0.4375 0.40625 -1.15625q0 -0.734375 -0.40625 -1.15625q-0.40625 -0.4375 -1.046875 -0.4375q-0.640625 0 -1.0625 0.4375q-0.40625 0.421875 -0.40625 1.15625q0 0.71875 0.40625 1.15625q0.421875 0.421875 1.0625 0.421875z" fill-rule="nonzero"/></g></svg>
